<svg width="199" height="46" viewBox="0 0 199 46" fill="none" xmlns="http://www.w3.org/2000/svg">
<path d="M54.808 9.512C56.1947 8.936 57.528 8.648 58.808 8.648C59.8747 8.648 60.9733 9.04267 62.104 9.832C62.7227 10.2587 63.416 11.0907 64.184 12.328C64.696 13.1813 65.3467 14.728 66.136 16.968L70.04 28.04C70.936 30.5147 71.8427 32.4773 72.76 33.928C73.6987 35.4 74.552 36.4987 75.32 37.224C76.088 37.9707 76.888 38.4933 77.72 38.792C78.552 39.0907 79.2347 39.24 79.768 39.24C80.3227 39.24 80.8133 39.1973 81.24 39.112L81.272 39.432C80.248 39.7733 79.2453 39.944 78.264 39.944C77.2827 39.944 76.3013 39.688 75.32 39.176C74.3387 38.6853 73.4213 37.992 72.568 37.096C70.7333 35.24 69.176 32.4133 67.896 28.616L66.648 24.968H57.88L55.672 30.664C55.5653 30.92 55.512 31.176 55.512 31.432C55.512 31.688 55.6187 31.9653 55.832 32.264C56.0667 32.5413 56.4187 32.68 56.888 32.68H57.144V33H50.712V32.68H51C51.512 32.68 52.0133 32.5307 52.504 32.232C52.9947 31.912 53.4 31.4427 53.72 30.824L61.656 11.816C60.504 10.1733 59.0747 9.352 57.368 9.352C56.6 9.352 55.7787 9.512 54.904 9.832L54.808 9.512ZM58.232 24.008H66.328L63.8 16.552C63.3093 15.1227 62.8613 14.0027 62.456 13.192L58.232 24.008ZM82.2933 11.592H80.2453V30.664C80.2453 31.2187 80.4373 31.6987 80.8213 32.104C81.2266 32.488 81.7173 32.68 82.2933 32.68H82.6773L82.7093 33H75.7013V32.68H76.1173C76.6719 32.68 77.1413 32.488 77.5253 32.104C77.9306 31.72 78.1439 31.2507 78.1653 30.696V12.936C78.1439 12.3813 77.9306 11.912 77.5253 11.528C77.1413 11.1227 76.6719 10.92 76.1173 10.92H75.7013V10.6H84.3413C86.2826 10.6 87.8079 11.144 88.9173 12.232C90.0266 13.2987 90.5813 14.696 90.5813 16.424C90.5813 18.1307 90.0479 19.6133 88.9813 20.872C87.9359 22.1093 86.6559 22.728 85.1413 22.728C85.4613 22.8773 85.8346 23.176 86.2613 23.624C86.7093 24.0507 87.1039 24.4987 87.4453 24.968C89.2799 27.592 90.4746 29.2133 91.0293 29.832C91.5839 30.4293 91.9786 30.8453 92.2133 31.08C92.4479 31.2933 92.7039 31.5067 92.9813 31.72C93.2586 31.9333 93.5359 32.104 93.8133 32.232C94.4319 32.5307 95.0933 32.68 95.7973 32.68V33H94.0373C93.1199 33 92.2666 32.84 91.4773 32.52C90.6879 32.1787 90.0906 31.8373 89.6853 31.496C89.3013 31.1333 88.9599 30.792 88.6613 30.472C88.3839 30.1307 87.5946 29.0213 86.2933 27.144C84.9919 25.2667 84.2346 24.2 84.0213 23.944C83.8079 23.6667 83.5839 23.4 83.3493 23.144C82.6666 22.4187 81.9839 22.056 81.3013 22.056V21.736C81.4719 21.7573 81.6959 21.768 81.9733 21.768C82.2506 21.768 82.5919 21.7573 82.9973 21.736C85.6426 21.672 87.3066 20.5627 87.9893 18.408C88.1173 17.9813 88.1813 17.5867 88.1813 17.224C88.1813 16.84 88.1813 16.5947 88.1813 16.488C88.1386 15.0587 87.7653 13.9067 87.0613 13.032C86.3573 12.1573 85.4079 11.688 84.2133 11.624C83.7013 11.6027 83.0613 11.592 82.2933 11.592ZM112.536 13.448C112.536 12.936 112.354 12.4987 111.992 12.136C111.629 11.752 111.202 11.5493 110.712 11.528H104.632V30.696C104.653 31.2507 104.856 31.72 105.24 32.104C105.645 32.488 106.125 32.68 106.68 32.68H107.096V33H100.088V32.68H100.504C101.058 32.68 101.528 32.488 101.911 32.104C102.317 31.72 102.53 31.2613 102.552 30.728V11.528H96.4715C95.9595 11.5493 95.5222 11.752 95.1595 12.136C94.8182 12.4987 94.6475 12.936 94.6475 13.448V13.992L94.3275 14.024V9.992C94.6475 10.12 95.2022 10.248 95.9915 10.376C96.7808 10.504 97.5062 10.568 98.1675 10.568H108.984C110.029 10.568 110.893 10.4933 111.576 10.344C112.28 10.1733 112.706 10.056 112.856 9.992V14.024L112.536 13.992V13.448ZM126 33.448C122.63 33.4267 119.878 32.3493 117.744 30.216C115.632 28.0827 114.576 25.2773 114.576 21.8C114.576 18.3013 115.632 15.4853 117.744 13.352C119.878 11.2187 122.694 10.152 126.192 10.152C129.051 10.152 131.579 10.8773 133.776 12.328L134.416 16.84H134.128C133.659 15.0053 132.71 13.5973 131.28 12.616C129.851 11.6133 128.155 11.112 126.192 11.112C123.398 11.112 121.158 12.0827 119.472 14.024C117.808 15.9653 116.976 18.536 116.976 21.736C116.976 24.936 117.798 27.5173 119.44 29.48C121.104 31.4213 123.291 32.424 126 32.488C128.39 32.488 130.384 31.8373 131.984 30.536C133.712 29.128 134.758 26.8347 135.12 23.656H135.376L134.992 28.68C133.051 31.8587 130.054 33.448 126 33.448ZM159.881 32.68H160.137V33H152.937V32.68H153.225C153.673 32.68 154.003 32.5413 154.217 32.264C154.451 31.9653 154.569 31.688 154.569 31.432C154.569 31.176 154.526 30.92 154.441 30.664L152.393 25.224H143.753L141.609 30.696C141.523 30.952 141.481 31.208 141.481 31.464C141.481 31.6987 141.587 31.9653 141.801 32.264C142.035 32.5413 142.377 32.68 142.825 32.68H143.113V33H136.681V32.68H136.969C137.502 32.68 138.025 32.5093 138.537 32.168C139.049 31.8267 139.465 31.3253 139.785 30.664L147.017 13.448C147.806 11.72 148.201 10.6213 148.201 10.152H148.489L157.065 30.664C157.363 31.3253 157.769 31.8267 158.281 32.168C158.793 32.5093 159.326 32.68 159.881 32.68ZM144.137 24.264H152.009L148.169 13.992L144.137 24.264ZM168.262 11.592H166.214V30.664C166.214 31.2187 166.406 31.6987 166.79 32.104C167.195 32.488 167.686 32.68 168.262 32.68H168.646L168.678 33H161.67V32.68H162.086C162.641 32.68 163.11 32.488 163.494 32.104C163.899 31.72 164.113 31.2507 164.134 30.696V12.936C164.113 12.3813 163.899 11.912 163.494 11.528C163.11 11.1227 162.641 10.92 162.086 10.92H161.67V10.6H170.31C172.251 10.6 173.777 11.144 174.886 12.232C175.995 13.2987 176.55 14.696 176.55 16.424C176.55 18.1307 176.017 19.6133 174.95 20.872C173.905 22.1093 172.625 22.728 171.11 22.728C171.43 22.8773 171.803 23.176 172.23 23.624C172.678 24.0507 173.073 24.4987 173.414 24.968C175.249 27.592 176.443 29.2133 176.998 29.832C177.553 30.4293 177.947 30.8453 178.182 31.08C178.417 31.2933 178.673 31.5067 178.95 31.72C179.227 31.9333 179.505 32.104 179.782 32.232C180.401 32.5307 181.062 32.68 181.766 32.68V33H180.006C179.089 33 178.235 32.84 177.446 32.52C176.657 32.1787 176.059 31.8373 175.654 31.496C175.27 31.1333 174.929 30.792 174.63 30.472C174.353 30.1307 173.563 29.0213 172.262 27.144C170.961 25.2667 170.203 24.2 169.99 23.944C169.777 23.6667 169.553 23.4 169.318 23.144C168.635 22.4187 167.953 22.056 167.27 22.056V21.736C167.441 21.7573 167.665 21.768 167.942 21.768C168.219 21.768 168.561 21.7573 168.966 21.736C171.611 21.672 173.275 20.5627 173.958 18.408C174.086 17.9813 174.15 17.5867 174.15 17.224C174.15 16.84 174.15 16.5947 174.15 16.488C174.107 15.0587 173.734 13.9067 173.03 13.032C172.326 12.1573 171.377 11.688 170.182 11.624C169.67 11.6027 169.03 11.592 168.262 11.592ZM182.774 32.68C183.328 32.68 183.798 32.488 184.182 32.104C184.587 31.6987 184.8 31.2187 184.822 30.664V12.744C184.822 12.232 184.619 11.8053 184.214 11.464C183.808 11.1013 183.328 10.92 182.774 10.92H182.39L182.358 10.6H191.734C192.395 10.6 193.11 10.536 193.878 10.408C194.667 10.28 195.222 10.152 195.542 10.024V14.056H195.222V13.48C195.222 12.968 195.04 12.5307 194.678 12.168C194.336 11.8053 193.92 11.6133 193.43 11.592H186.902V21.48H192.31C192.736 21.4587 193.099 21.2987 193.398 21C193.696 20.7013 193.846 20.328 193.846 19.88V19.432H194.166V24.488H193.846V24.008C193.846 23.5813 193.696 23.2187 193.398 22.92C193.12 22.6213 192.768 22.4613 192.342 22.44H186.902V32.008H191.478C193.056 32.008 194.262 31.656 195.094 30.952C195.926 30.248 196.619 29.2027 197.174 27.816H197.494L195.638 33H182.358V32.68H182.774Z" fill="#EDEDED"/>
<path d="M1.50275 1.3708C1.20693 3.07519 1.04127 4.79142 1.2306 6.46031C1.32526 7.28883 1.47908 8.09369 1.79856 8.83936C1.95239 9.19444 2.17721 9.5732 2.39019 10.0111C2.49669 10.2242 2.59135 10.4609 2.66235 10.7095C2.67418 10.7686 2.69784 10.8397 2.70968 10.8988C2.72151 10.9699 2.73334 11.029 2.74517 11.1001C2.76884 11.2302 2.76884 11.396 2.75701 11.5025C2.74517 11.9523 2.73334 12.3783 2.74517 12.8044C2.75701 13.2305 2.80434 13.633 2.899 14.0117C2.91083 14.0591 2.92266 14.1064 2.9345 14.1419L2.98183 14.2721C3.01732 14.3431 3.05282 14.4378 3.10015 14.497C3.12382 14.5325 3.13565 14.568 3.15932 14.5917C3.18298 14.6154 3.20665 14.6509 3.23031 14.6745C3.27764 14.7219 3.33681 14.7692 3.4078 14.8166C3.70362 15.006 4.10593 15.148 4.49641 15.2427C5.28919 15.4321 6.12931 15.4676 6.9221 15.3255C7.31258 15.2545 7.69122 15.1243 8.0462 14.9586C8.22369 14.8639 8.38935 14.7692 8.54317 14.6509C8.697 14.5325 8.83899 14.4023 9.07564 14.355L9.14664 14.8403L9.09931 14.8166C9.07564 14.8047 9.06381 14.7929 9.04014 14.7929C8.99281 14.7692 8.95731 14.7574 8.90998 14.7456C8.82715 14.7101 8.73249 14.6864 8.63783 14.6627C8.54317 14.639 8.44851 14.6154 8.35385 14.6035L8.21186 14.5799C8.16453 14.568 8.1172 14.568 8.06987 14.568C7.67939 14.5325 7.28891 14.568 6.91027 14.6509C6.72094 14.7101 6.53162 14.7456 6.3423 14.8284C6.24764 14.8639 6.15298 14.8876 6.07015 14.9349L5.798 15.0651C5.70334 15.1006 5.62051 15.1598 5.53768 15.219L5.27736 15.3729C5.1117 15.4912 4.95788 15.6096 4.79222 15.728L4.78039 15.7398C4.61473 15.8582 4.38991 15.8226 4.27159 15.6569C4.18876 15.5386 4.17692 15.3965 4.23609 15.2782C4.25975 15.2427 4.27159 15.219 4.28342 15.1953C4.29525 15.1717 4.30708 15.148 4.33075 15.1243C4.35441 15.077 4.38991 15.0296 4.42541 14.9823C4.48457 14.8876 4.55557 14.8047 4.61473 14.7219C4.74489 14.5562 4.88688 14.3905 5.05254 14.2484C5.36019 13.9525 5.70334 13.6922 6.07015 13.4909C6.16481 13.4436 6.25947 13.3963 6.35413 13.3489L6.49612 13.2779L6.63811 13.2187C6.73278 13.1832 6.83927 13.1359 6.93393 13.1003L7.22975 13.0057L7.38357 12.9583L7.5374 12.9228L7.84504 12.8636C8.0462 12.8281 8.25919 12.8044 8.46034 12.7808L8.21186 13.3844C8.22369 13.3963 8.21186 13.3844 8.20002 13.3726L8.17636 13.3489C8.16453 13.3371 8.14086 13.3252 8.12903 13.3134C8.09353 13.2897 8.05803 13.2661 8.0107 13.2424C7.92787 13.195 7.84504 13.1595 7.75038 13.124C7.56106 13.053 7.35991 13.0175 7.15875 12.9938C6.9576 12.9702 6.74461 12.982 6.53162 13.0057C6.42513 13.0175 6.31863 13.0412 6.21214 13.053L5.89266 13.124L5.92816 13.1122C5.54951 13.2424 5.1827 13.3489 4.78039 13.4436C4.6739 13.4673 4.57923 13.4909 4.46091 13.5028C4.43724 13.5028 4.40174 13.5146 4.36625 13.5146C4.33075 13.5146 4.30708 13.5264 4.27159 13.5264C4.23609 13.5264 4.20059 13.5264 4.15326 13.5264C4.12959 13.5264 4.0941 13.5146 4.07043 13.5146L4.0231 13.5028H3.99943C3.99943 13.5028 3.9876 13.5028 3.97577 13.4909L3.94027 13.4791C3.85744 13.4436 3.77461 13.3963 3.71545 13.3016C3.64446 13.2069 3.63262 13.1595 3.62079 13.0767C3.60896 13.0412 3.60896 13.0175 3.60896 12.9938C3.60896 12.9702 3.60896 12.9465 3.60896 12.9228C3.60896 12.8755 3.62079 12.8518 3.62079 12.8163C3.64445 12.6979 3.69179 12.6269 3.72728 12.5677C3.79828 12.4375 3.88111 12.3428 3.96394 12.2482C4.28342 11.8931 4.66206 11.6682 5.05254 11.4788C5.44302 11.3013 5.85716 11.1829 6.2713 11.1119C6.68545 11.0409 7.09959 11.0172 7.51373 11.029L7.82138 11.0409C7.92787 11.0527 8.03437 11.0645 8.14086 11.0764C8.35385 11.1119 8.56684 11.1474 8.76799 11.2066C9.18213 11.3249 9.58444 11.4906 9.95126 11.7155C10.3181 11.9404 10.6494 12.2008 10.957 12.4849C11.5605 13.0767 12.0338 13.775 12.3769 14.5325C12.5426 14.9113 12.6846 15.3137 12.7793 15.728C12.8029 15.8345 12.8148 15.941 12.8384 16.0475C12.8503 16.1541 12.8621 16.2487 12.8739 16.3553C12.8976 16.5565 12.9094 16.7459 12.9213 16.9471C12.9686 17.7283 12.9804 18.5094 12.9686 19.2906C12.9686 19.6812 12.9567 20.0718 12.9331 20.4624C12.9094 20.853 12.8976 21.2436 12.8503 21.646L12.8384 21.7052L12.8266 21.7525C12.8266 21.7762 12.8266 21.7999 12.8266 21.8235C12.8266 21.8709 12.8266 21.9182 12.8266 21.9537C12.8384 22.0366 12.8621 22.1076 12.8858 22.155C12.9094 22.2023 12.9449 22.226 12.9922 22.2615C13.0159 22.2851 13.0514 22.2851 13.0869 22.3088C13.1342 22.3207 13.1934 22.3443 13.2407 22.3562C13.6785 22.4509 14.211 22.4153 14.6606 22.2733C14.7671 22.2378 14.8736 22.1905 14.9446 22.1431L14.9683 22.1313L15.0156 22.1076L15.0985 22.0484L15.2759 21.9182C15.5244 21.7407 15.8202 21.5631 16.1516 21.4566C16.3172 21.3974 16.4829 21.3501 16.6604 21.3264L16.7905 21.3028L16.8615 21.2909C16.8852 21.2909 16.9089 21.2791 16.9325 21.2791C16.9562 21.2791 16.9798 21.2672 17.0035 21.2554C17.181 21.1962 17.3348 21.0779 17.4058 20.9595C17.4768 20.8411 17.4768 20.7465 17.4177 20.5926C17.3348 20.415 17.2165 20.2612 17.0745 20.1783C17.0035 20.1428 16.9443 20.1191 16.897 20.1191C16.8497 20.1191 16.826 20.131 16.8024 20.1428L16.8142 20.131L16.826 20.1191V20.1073L16.8142 20.131C16.8024 20.1428 16.8024 20.1665 16.7905 20.1902L16.7669 20.273C16.7314 20.3795 16.6959 20.5097 16.6604 20.6518C16.5302 21.1844 16.4355 21.7525 16.3291 22.3325C16.2699 22.6166 16.2107 22.9125 16.1279 23.1965C16.0924 23.3386 16.0451 23.4924 15.9859 23.6463C15.9267 23.8002 15.8676 23.954 15.7493 24.1316C15.7374 24.1434 15.7374 24.1552 15.7256 24.1671C15.7138 24.1789 15.6901 24.2144 15.6664 24.2381C15.6428 24.2618 15.6309 24.2973 15.6073 24.321C15.5718 24.3801 15.5363 24.4393 15.5126 24.4985C15.4889 24.5577 15.4653 24.605 15.4653 24.6405C15.4534 24.676 15.4653 24.6997 15.4534 24.6879C15.4534 24.676 15.4298 24.6524 15.4298 24.6642C15.4298 24.6642 15.4653 24.6879 15.5126 24.6997C15.5599 24.7115 15.6191 24.7234 15.6783 24.7234L15.9386 24.7352C16.6367 24.7826 17.323 24.8299 18.0211 24.9364H18.033C18.0448 24.9364 18.0566 24.9364 18.0685 24.9483C18.1868 24.9719 18.3051 25.0074 18.4234 25.0311C18.5418 25.0548 18.6719 25.0785 18.7902 25.1021C18.9086 25.1258 19.0269 25.1376 19.1452 25.1495C19.2635 25.1613 19.37 25.1613 19.4529 25.1495H19.4884C19.6895 25.1258 19.867 25.2797 19.8907 25.4809C19.9025 25.6584 19.7842 25.8241 19.6185 25.8715C18.4234 26.1674 17.2283 26.4633 16.0451 26.771L15.1576 27.0077L14.7198 27.1261L14.6133 27.1616C14.5778 27.1734 14.5423 27.1853 14.5187 27.1853C14.4713 27.1971 14.3767 27.2326 14.3057 27.2563C13.998 27.3628 13.6904 27.4575 13.3709 27.5167C13.2052 27.5522 13.0396 27.5759 12.8739 27.5877C12.6964 27.5995 12.5189 27.6114 12.3296 27.5759C12.1285 27.5404 11.9983 27.3628 12.022 27.1616C12.0338 27.1024 12.0575 27.0433 12.093 26.9959C12.3533 26.6645 12.6018 26.3686 12.9094 26.0609C13.0632 25.9188 13.2171 25.765 13.4182 25.6348C13.4656 25.5992 13.5247 25.5637 13.5839 25.5401C13.6075 25.5282 13.6549 25.5046 13.6904 25.4927C13.7259 25.4809 13.7614 25.4691 13.8087 25.4572C13.998 25.4217 14.1163 25.4454 14.2347 25.4572L14.4003 25.4809L14.5542 25.5046C14.6606 25.5282 14.7553 25.5401 14.85 25.5637L15.4179 25.6821C15.7966 25.7531 16.1752 25.8123 16.542 25.836C16.9089 25.8596 17.2875 25.8596 17.6425 25.8123C17.7371 25.8005 17.82 25.7768 17.9028 25.765C17.9501 25.7531 17.9856 25.7531 18.033 25.7413L18.1631 25.7058L18.2933 25.6703L18.3761 25.6466C18.4116 25.6348 18.4471 25.6348 18.4826 25.6229C18.6128 25.5993 18.7429 25.5874 18.8967 25.6111C19.0506 25.6348 19.2162 25.6821 19.37 25.8123C19.5239 25.9425 19.6067 26.1082 19.6422 26.2621C19.6659 26.3686 19.6659 26.4751 19.654 26.5698C19.6422 26.6645 19.6067 26.7473 19.5712 26.8184C19.5002 26.9604 19.4174 27.0669 19.3345 27.1498C19.1689 27.3273 18.9914 27.4694 18.8139 27.5877C18.6364 27.7061 18.4471 27.8126 18.2578 27.9073C17.8791 28.0967 17.4887 28.2505 17.0863 28.3689C16.6959 28.4873 16.2936 28.5701 15.9031 28.653C15.5008 28.724 15.0985 28.7832 14.6725 28.795C14.4595 28.795 14.2347 28.795 13.9744 28.7358C13.9034 28.724 13.8324 28.7003 13.7614 28.6648C13.6904 28.6293 13.5957 28.5819 13.5129 28.4873C13.4419 28.4044 13.3827 28.3097 13.3472 28.1914C13.3117 28.073 13.3117 27.9546 13.3354 27.8481C13.3827 27.6351 13.4892 27.493 13.6075 27.3747C13.7259 27.2681 13.856 27.1853 13.9862 27.1379C14.2583 27.0314 14.5305 27.0196 14.779 27.0669C15.0275 27.1024 15.2641 27.1971 15.4653 27.3036C15.5718 27.3628 15.6664 27.422 15.7611 27.493C15.8557 27.564 15.9504 27.6469 16.0451 27.7297L16.1634 27.8718L16.2226 27.9428L16.2699 28.0256L16.3646 28.1795C16.4 28.2387 16.4119 28.286 16.4474 28.3452C16.5539 28.5701 16.6012 28.795 16.6485 29.008C16.7314 29.4341 16.7432 29.8484 16.7905 30.2035C16.8024 30.2863 16.8142 30.381 16.8379 30.4639C16.8497 30.4994 16.8615 30.5467 16.8615 30.5822L16.897 30.6888C16.9089 30.7243 16.9207 30.7598 16.9443 30.7953L16.9917 30.89C17.0153 30.9136 17.0272 30.9492 17.0508 30.9728L17.0745 31.0202L17.11 31.0675C17.2165 31.1977 17.3348 31.3042 17.465 31.3989C17.5951 31.4936 17.7371 31.5646 17.8791 31.6238C18.1749 31.7303 18.4944 31.754 18.8021 31.6948C18.9559 31.6593 19.1097 31.612 19.2517 31.541L19.3109 31.5173C19.3227 31.5055 19.3345 31.4936 19.3464 31.4936C19.37 31.4699 19.4055 31.4581 19.4292 31.4463C19.4884 31.3871 19.5594 31.3397 19.6185 31.2806C19.8788 31.0438 20.1273 30.7479 20.364 30.452C20.6006 30.1561 20.8373 29.8484 21.0621 29.5288C21.5118 28.9015 21.9496 28.2505 22.3874 27.5877C23.2985 26.1792 24.6947 25.0903 26.2685 24.5222C27.0613 24.2381 27.8895 24.0606 28.7178 24.0014C29.5461 23.9304 30.3744 23.9895 31.1909 24.0961C31.9955 24.2026 32.8238 24.4038 33.5929 24.6997C34.3738 24.9838 35.1075 25.3625 35.8174 25.7886C37.2137 26.6527 38.4561 27.7179 39.5802 28.8778C39.7222 29.0199 39.8524 29.1737 39.9943 29.3158L40.3967 29.7419C40.6688 30.0259 40.941 30.31 41.2013 30.6059C41.7337 31.1977 42.2662 31.8014 42.7632 32.4405C43.2602 33.0797 43.7216 33.778 44.1121 34.5237L44.2541 34.8077C44.3014 34.9024 44.3369 34.9971 44.3843 35.0918C44.4198 35.1865 44.4671 35.2812 44.5026 35.3877L44.6091 35.6836C44.6919 35.8848 44.7392 36.086 44.7984 36.2991C44.8339 36.3938 44.8457 36.5121 44.8812 36.6186C44.9049 36.7252 44.9167 36.8317 44.9404 36.95C45.0587 37.8259 44.9996 38.69 44.7747 39.5303C44.6682 39.9564 44.5026 40.3588 44.2896 40.7613C44.1831 40.9625 44.0529 41.1519 43.9109 41.3294C43.769 41.5069 43.6033 41.6845 43.4258 41.8383C43.0708 42.1461 42.6212 42.371 42.1479 42.4893C41.6746 42.6077 41.2013 42.584 40.7516 42.5012C40.3138 42.4183 39.8997 42.2763 39.4974 42.0869C39.0951 41.8975 38.7282 41.649 38.4088 41.3649C37.7461 40.7968 37.2492 40.0866 36.8587 39.3646C36.4682 38.6308 36.1724 37.8733 35.9239 37.1039C35.6754 36.3346 35.4861 35.5534 35.2968 34.784L35.0365 33.6241C34.9418 33.2454 34.859 32.8784 34.7406 32.5115C34.5158 31.7777 34.2437 31.0675 33.9005 30.3929C33.5574 29.7182 33.1314 29.0909 32.6226 28.5583C32.1138 28.0256 31.5103 27.5759 30.8477 27.2563C30.1851 26.9367 29.4633 26.7237 28.7178 26.6172C27.9842 26.5106 27.2506 26.558 26.5406 26.7474C25.8307 26.9367 25.168 27.28 24.5527 27.7179C23.334 28.5938 22.3637 29.8247 21.5591 31.1267C21.1568 31.7895 20.79 32.4642 20.4586 33.1743C20.1273 33.8727 19.8197 34.5947 19.5357 35.3285L19.3109 35.8848C19.2872 35.9321 19.2754 35.9795 19.2517 36.0268L19.1807 36.1689L19.0624 36.4293C18.9086 36.7843 18.7547 37.1394 18.6246 37.4945C18.3643 38.2165 18.1394 38.9622 17.962 39.7197C17.8673 40.0984 17.7963 40.4772 17.7135 40.856C17.678 41.0453 17.6425 41.2347 17.607 41.4241L17.5123 42.0041C17.394 42.7734 17.2875 43.5546 17.2875 44.3003C17.2875 44.4896 17.2993 44.6672 17.323 44.8329C17.3348 44.9157 17.3467 44.9986 17.3703 45.0459C17.3703 45.0578 17.3822 45.0814 17.3822 45.0814C17.3822 45.0933 17.394 45.1051 17.394 45.1051C17.394 45.0933 17.3822 45.0933 17.3703 45.0933C17.3585 45.0814 17.3348 45.0814 17.323 45.0696C17.3112 45.0696 17.3112 45.0696 17.2993 45.0696C17.2993 45.0696 17.2757 45.0696 17.252 45.0696C17.2165 45.0696 17.181 45.0933 17.1692 45.1051C17.1573 45.1169 17.1573 45.1169 17.1455 45.1169C17.1455 45.1169 17.1573 45.1051 17.1692 45.0696C17.181 45.0459 17.1928 45.0104 17.2047 44.9749C17.252 44.8329 17.2875 44.6435 17.3112 44.466C17.4058 43.7203 17.4177 42.9391 17.4177 42.1698C17.394 40.6074 17.2757 39.045 17.0745 37.5063C17.0153 37.1158 16.9562 36.737 16.8852 36.3582C16.8142 35.9795 16.7195 35.6126 16.613 35.2575C16.4947 34.9142 16.3409 34.571 16.1516 34.2988C16.0569 34.1567 15.9504 34.0384 15.8202 33.9318C15.7019 33.8253 15.5599 33.7188 15.4061 33.6241C15.1103 33.4347 14.7553 33.2809 14.3885 33.0915C14.0217 32.9021 13.6785 32.6891 13.3354 32.4642C12.6609 32.0262 12.0101 31.5646 11.3712 31.0912C10.1051 30.1443 8.88632 29.0791 7.79771 27.8481C7.66755 27.6942 7.52556 27.5285 7.3954 27.351L7.30074 27.2208C7.28891 27.209 7.27708 27.1853 7.26524 27.1734L7.21791 27.1143C7.15875 27.0314 7.09959 26.9367 7.04042 26.8539C6.80377 26.5106 6.59078 26.1555 6.38963 25.8005C6.18847 25.4454 6.01098 25.0785 5.84533 24.6997C5.7625 24.5103 5.67967 24.321 5.60867 24.1316L5.50218 23.8357C5.47852 23.7647 5.44302 23.6936 5.40752 23.6345C5.33652 23.5043 5.25369 23.3859 5.19453 23.3267C5.15903 23.2912 5.1472 23.2912 5.1472 23.2912C5.15903 23.2912 5.12354 23.2912 5.1827 23.2794C5.23003 23.2675 5.2537 23.2557 5.28919 23.2439C5.32469 23.2202 5.32469 23.2202 5.34836 23.2084C5.39569 23.161 5.38385 23.161 5.38385 23.1729C5.37202 23.1847 5.36019 23.2084 5.34836 23.232C5.32469 23.2912 5.30103 23.3622 5.27736 23.4451C5.23003 23.599 5.19453 23.7765 5.15903 23.9659C5.04071 24.6879 5.00521 25.4572 5.04071 26.2147C5.07621 26.9722 5.17087 27.7179 5.38385 28.4162C5.49035 28.7713 5.62051 29.1027 5.798 29.3986C5.82166 29.4341 5.84533 29.4696 5.86899 29.5052L5.95182 29.6235L6.10565 29.8484C6.16481 29.9194 6.21214 29.9904 6.2713 30.0615C6.33047 30.1325 6.3778 30.2035 6.44879 30.2745C6.68545 30.5467 6.9576 30.7953 7.24158 31.0202C7.5374 31.2332 7.84505 31.4226 8.17636 31.5646C8.83899 31.8605 9.57261 31.9907 10.2826 31.9316C10.4837 31.9079 10.6612 32.0617 10.6849 32.263C10.6967 32.4287 10.6021 32.5707 10.4601 32.6417L10.4482 32.6536C10.2352 32.7482 10.0341 32.8074 9.83293 32.8666C9.61994 32.9258 9.41879 32.9731 9.2058 33.0205C8.77982 33.1033 8.34202 33.1625 7.90421 33.1743C7.4664 33.1862 7.00493 33.1507 6.55529 33.056C6.10565 32.9613 5.65601 32.8074 5.23003 32.5707C4.80405 32.334 4.42541 32.0262 4.0941 31.6712C3.92844 31.4936 3.78645 31.2924 3.65629 31.0912C3.58529 30.9847 3.53796 30.89 3.4788 30.7953L3.39597 30.6414L3.32497 30.4875C2.92266 29.6709 2.68601 28.8068 2.54402 27.9546C2.41386 27.0906 2.37836 26.2147 2.44936 25.3507C2.52035 24.4867 2.69784 23.6345 2.99366 22.7941C3.14748 22.3798 3.32497 21.9656 3.56163 21.575C3.79828 21.1844 4.0941 20.8056 4.49641 20.4979C4.54374 20.4624 4.59107 20.4269 4.65023 20.3914L4.81589 20.2849L4.99338 20.202L5.08804 20.1665C5.1117 20.1547 5.1472 20.1428 5.17087 20.131C5.38385 20.0481 5.59684 19.9889 5.80983 19.9416C6.2358 19.8351 6.64995 19.7641 7.05226 19.7049C7.86871 19.5747 8.67333 19.4682 9.45428 19.3143C10.2352 19.1604 11.0044 18.9474 11.7262 18.6515C12.4479 18.3556 13.1224 17.9531 13.7259 17.4679C14.0217 17.2193 14.3057 16.9589 14.566 16.663C14.6961 16.521 14.8145 16.3671 14.9446 16.2132L15.3114 15.728C15.8084 15.077 16.3054 14.426 16.826 13.7868C17.3467 13.1477 17.891 12.5085 18.5654 11.9641C18.8967 11.6919 19.2635 11.4433 19.6777 11.2658C20.08 11.0882 20.5296 10.958 20.9793 10.9343C21.4289 10.9107 21.8786 10.958 22.3045 11.0645C22.7305 11.1711 23.1328 11.3249 23.5233 11.4906H23.5351C23.7126 11.5735 23.7955 11.7865 23.7126 11.9641C23.689 12.0233 23.6416 12.0824 23.5825 12.118L22.908 12.5677C22.8015 12.6387 22.6832 12.7216 22.5767 12.7808C22.5175 12.8163 22.4584 12.8518 22.3992 12.8755C22.34 12.911 22.2809 12.9346 22.2217 12.9583C22.1625 12.982 22.1034 13.0175 22.0324 13.0293C21.9732 13.053 21.9022 13.0648 21.8431 13.0885L21.6537 13.1359L21.4644 13.1714C21.2041 13.2305 20.9438 13.2542 20.6835 13.2779C20.4231 13.2897 20.1628 13.3016 19.9025 13.2897C19.7724 13.2779 19.6422 13.2779 19.512 13.2661L19.1334 13.2187C19.0742 13.2069 19.0032 13.2069 18.9441 13.195L18.7547 13.1595L18.3761 13.0885C18.1276 13.0293 17.8791 12.9583 17.6425 12.8991L17.5951 12.8873C17.3585 12.8281 17.2165 12.5796 17.2875 12.3428C17.3112 12.2718 17.3348 12.2126 17.3822 12.1653C17.4177 12.1298 17.4413 12.1061 17.4768 12.0824C17.5123 12.0588 17.536 12.0351 17.5715 12.0233C17.6306 11.9878 17.7016 11.9523 17.749 11.9049C17.8555 11.8102 17.9501 11.7274 18.0566 11.6445C18.1631 11.5617 18.2696 11.4788 18.3761 11.4078C18.4826 11.3368 18.5891 11.2539 18.7074 11.1947C19.1689 10.9225 19.654 10.7213 20.1628 10.5674C20.293 10.5319 20.4231 10.5082 20.5533 10.4727C20.6125 10.4609 20.6835 10.4372 20.7426 10.4372L20.9438 10.4136C21.0739 10.4017 21.2041 10.3781 21.3343 10.3662L21.7247 10.3425C21.7957 10.3425 21.8549 10.3307 21.9259 10.3307L22.127 10.3425L22.5175 10.3662C22.7778 10.3899 23.0382 10.4372 23.2866 10.4727L22.9672 11.1001C22.8962 11.029 22.7897 10.9462 22.695 10.8752C22.6004 10.8042 22.4939 10.7331 22.3992 10.6621C22.198 10.5319 21.9851 10.4136 21.7602 10.3189C21.5472 10.2242 21.3224 10.1532 21.0976 10.1295C20.8728 10.1058 20.6835 10.1177 20.4113 10.1532C19.9025 10.236 19.3937 10.3425 18.8849 10.4609C18.3761 10.5793 17.8673 10.7213 17.3703 10.8633H17.3585C17.1692 10.9107 16.9798 10.816 16.9325 10.6266L16.9207 10.5911L16.9089 10.5674C16.9089 10.5438 16.897 10.5319 16.897 10.5082C16.8852 10.4727 16.8852 10.4372 16.8852 10.4017C16.8734 10.3307 16.8852 10.2597 16.8852 10.1887C16.897 10.0466 16.9562 9.90461 17.039 9.77441C17.2047 9.52585 17.4768 9.39566 17.678 9.32464C17.8791 9.25362 18.0803 9.21812 18.2696 9.18261C18.4589 9.1471 18.6483 9.12343 18.8376 9.09975C19.5949 9.0169 20.3403 8.98139 21.0976 8.96956H21.3816H21.5236L21.6419 8.95772C21.7247 8.95772 21.8076 8.95772 21.8786 8.93405L21.9969 8.91038C22.0324 8.91038 22.0797 8.89854 22.1152 8.88671C22.4229 8.80385 22.7187 8.66182 22.9908 8.46061C23.5115 8.05818 23.9256 7.46638 24.1623 6.82723C24.2806 6.51949 24.3516 6.17624 24.3753 5.84483C24.3989 5.51342 24.3634 5.18201 24.2688 4.87427C24.1741 4.56654 23.9966 4.30614 23.76 4.10493L23.5706 3.9629C23.5115 3.91555 23.4286 3.88004 23.3695 3.84454C23.2985 3.79719 23.2275 3.77352 23.1447 3.73801C23.0618 3.7025 23.0027 3.67883 22.908 3.64332C22.1625 3.35926 21.4881 2.90949 20.9201 2.37686C20.6361 2.10463 20.3758 1.82057 20.1273 1.51283C19.8907 1.20509 19.6659 0.885516 19.4765 0.54227C19.3819 0.364728 19.441 0.139843 19.6185 0.0451543C19.7724 -0.0376983 19.9498 -0.00219005 20.0682 0.116171L20.08 0.128007C20.4468 0.530434 20.8491 0.921024 21.2514 1.27611C21.6656 1.64303 22.0916 1.98627 22.5412 2.28217C22.766 2.42421 22.9908 2.56624 23.2275 2.67276C23.3458 2.73194 23.4523 2.79112 23.5706 2.82663C23.6298 2.85031 23.689 2.87398 23.7363 2.88581L23.9019 2.92132L23.9848 2.94499L24.1031 2.96867C24.1859 2.9805 24.2569 3.00417 24.3398 3.01601L24.5646 3.08703C24.6356 3.1107 24.7184 3.13437 24.7894 3.16988C25.0852 3.28824 25.3692 3.43027 25.6295 3.60781C26.6945 4.30614 27.4044 5.41873 27.7831 6.54316C27.9724 7.11129 28.0907 7.7031 28.1617 8.28307C28.1972 8.57897 28.209 8.86303 28.2327 9.15893C28.2445 9.45484 28.2445 9.72707 28.2445 10.0111C28.2682 11.1356 28.3037 12.2718 28.28 13.4081C28.2682 13.9762 28.2327 14.5562 28.1499 15.1243L28.0789 15.5504L27.996 15.9765C27.9605 16.1186 27.925 16.2606 27.8895 16.4026L27.7831 16.805C27.4872 17.8821 27.2269 18.971 27.0849 20.06C26.9429 21.1489 26.9074 22.2496 27.0968 23.3031L26.375 23.3741C26.3631 22.4035 26.3868 21.4211 26.517 20.4269C26.6471 19.4445 26.9074 18.4621 27.3571 17.5507C27.4636 17.3258 27.5937 17.1009 27.7239 16.8879C27.7949 16.7814 27.8541 16.6748 27.9369 16.5683C28.0079 16.4618 28.0907 16.3553 28.1499 16.2606C28.422 15.8818 28.6823 15.4912 28.8835 15.0888C29.0846 14.6864 29.2266 14.2721 29.274 13.846C29.2858 13.7395 29.2858 13.633 29.2976 13.5264V13.1595C29.2976 12.9228 29.2976 12.6861 29.2858 12.4494C29.274 12.2126 29.2621 11.9878 29.2385 11.7629C29.2266 11.6563 29.203 11.5498 29.1793 11.4551C29.1556 11.3604 29.1201 11.2776 29.0965 11.2184C29.0846 11.1947 29.061 11.1711 29.061 11.1711C29.0491 11.1592 29.061 11.1592 29.0491 11.1711C29.0491 11.1711 29.0373 11.1711 29.0136 11.1711C28.99 11.1829 28.99 11.1711 29.0136 11.1711C29.0373 11.1592 29.061 11.1237 29.061 11.1001C29.061 11.0882 29.061 11.0882 29.061 11.1119C29.0728 11.1474 29.0965 11.2302 29.1438 11.2894C29.2385 11.4315 29.3805 11.5498 29.5343 11.6208C29.6881 11.6919 29.8301 11.7037 29.9721 11.6563C30.0076 11.6445 30.0431 11.6327 30.0786 11.609C30.1141 11.5853 30.1496 11.5735 30.1851 11.5498C30.2442 11.5025 30.3034 11.4551 30.3507 11.3841C30.4572 11.2421 30.5282 11.0527 30.5756 10.8515C30.6702 10.4491 30.6702 9.9993 30.5874 9.5732C30.5401 9.36015 30.4809 9.15894 30.3981 8.99323C30.3152 8.81569 30.1851 8.69733 30.1141 8.67366C30.0904 8.66182 30.0786 8.66182 30.0549 8.66182C30.0194 8.66182 29.9958 8.66182 29.9603 8.67366C29.9011 8.68549 29.8301 8.721 29.7591 8.76834C29.6171 8.86303 29.4751 9.0169 29.3568 9.19444C29.1083 9.53769 28.919 9.97562 28.777 10.3899V10.4017C28.7178 10.5911 28.5048 10.6976 28.3155 10.6384C28.138 10.5793 28.0434 10.4017 28.067 10.2242C28.138 9.83359 28.2209 9.46667 28.3155 9.08792C28.4102 8.70916 28.5285 8.34225 28.6705 7.97533C28.8125 7.60841 28.9782 7.25333 29.203 6.91008C29.3095 6.73254 29.4396 6.56683 29.5934 6.41296C29.7473 6.2591 29.9248 6.11706 30.1496 6.02237C30.5992 5.82116 31.1435 5.86851 31.534 6.17624C31.6405 6.24726 31.7115 6.34195 31.7943 6.4248C31.8535 6.51949 31.9245 6.61418 31.9718 6.70887C32.0783 6.89824 32.1375 7.09946 32.1966 7.30067C32.3031 7.69126 32.3505 8.09369 32.3623 8.47244C32.386 8.86303 32.3741 9.24179 32.3623 9.63238C32.3268 10.4017 32.244 11.1474 32.1256 11.9049C32.0665 12.2837 32.0073 12.6506 31.9481 13.0175C31.9245 13.195 31.889 13.3963 31.8416 13.5856C31.7943 13.775 31.747 13.9644 31.6997 14.1419C31.5932 14.5088 31.463 14.8758 31.321 15.2308C31.179 15.5859 31.0134 15.941 30.8122 16.2843C30.7057 16.45 30.5992 16.6157 30.4572 16.7814C30.3152 16.9352 30.1496 17.1009 29.9011 17.1838C29.7709 17.2193 29.6171 17.2311 29.487 17.1838C29.3568 17.1483 29.2148 17.0536 29.132 16.9352C29.0491 16.805 29.0136 16.6748 29.0018 16.5447C29.0018 16.4855 29.0018 16.4263 29.0018 16.3671C29.0136 16.3079 29.0136 16.2487 29.0255 16.2014C29.132 15.7753 29.3568 15.4321 29.6171 15.1243C29.8893 14.8284 30.1969 14.568 30.5401 14.3668C30.8832 14.1656 31.2619 14.0117 31.6523 13.9052C32.0428 13.8105 32.4569 13.775 32.8593 13.8105C33.2616 13.8342 33.6639 13.9289 34.0425 14.0591C34.433 14.1893 34.7998 14.3786 35.143 14.6035C35.4861 14.8403 35.7938 15.1125 36.0659 15.4084C36.3499 15.7043 36.5865 16.0239 36.8114 16.3671C37.0362 16.7104 37.2255 17.0536 37.403 17.4205C37.5686 17.7874 37.7225 18.1544 37.8526 18.5449C37.9591 18.9355 38.0183 19.338 38.0538 19.7286C38.1011 20.131 38.113 20.5216 38.113 20.924C38.113 21.3264 38.0775 21.7289 38.0183 22.1194C37.9591 22.51 37.8763 22.9125 37.7461 23.2912C37.616 23.67 37.474 24.0487 37.2728 24.4038C37.0717 24.7589 36.835 25.0903 36.5629 25.398C36.4327 25.5519 36.1961 25.5756 36.0422 25.4454C35.9357 25.3507 35.8884 25.2087 35.9239 25.0785V25.0666C35.9831 24.8417 36.0304 24.5813 36.0659 24.3328C36.1014 24.0842 36.1369 23.8357 36.1606 23.5753C36.2079 23.0663 36.2316 22.5574 36.2197 22.0603C36.2079 21.5513 36.1606 21.0542 36.0896 20.5571L36.0186 20.1902C36.0067 20.131 35.9949 20.0718 35.9831 20.0008L35.9357 19.8232L35.8411 19.4563L35.7228 19.1012L35.6636 18.9237L35.5926 18.7462L35.4506 18.4029L35.2849 18.0715C35.2613 18.0123 35.2258 17.965 35.2021 17.9058L35.1075 17.7519L35.0128 17.5981C34.9773 17.5389 34.9536 17.4915 34.9181 17.4442L34.7052 17.1483L34.4685 16.8642C34.3857 16.7695 34.3028 16.6867 34.22 16.6038C33.8769 16.2724 33.4746 15.9884 33.0367 15.799C32.5989 15.6096 32.1256 15.4912 31.676 15.5031H31.6642C31.463 15.5031 31.2973 15.3492 31.2855 15.148C31.2855 14.9468 31.4393 14.7811 31.6405 14.7692C32.8238 14.7574 33.9005 15.3019 34.7052 16.083C34.7998 16.1896 34.9063 16.2843 35.001 16.3908L35.2731 16.7104L35.5098 17.0536C35.5453 17.1128 35.5926 17.172 35.6163 17.2311L35.7228 17.4087L35.8293 17.5862C35.8647 17.6454 35.8884 17.7046 35.9239 17.7756C35.9831 17.894 36.0422 18.0242 36.1014 18.1425L36.2552 18.5213L36.3262 18.7107L36.3854 18.9L36.5155 19.2906L36.6102 19.6812L36.6575 19.8824C36.6694 19.9534 36.6812 20.0126 36.693 20.0836L36.764 20.4861C36.835 21.0187 36.8942 21.5631 36.906 22.0958C36.9179 22.6284 36.8942 23.1729 36.8469 23.7055C36.8232 23.9777 36.7877 24.2381 36.7404 24.4985C36.693 24.7707 36.6457 25.0193 36.5865 25.3033L35.9594 24.9719C36.1606 24.6997 36.3381 24.392 36.48 24.0842C36.622 23.7647 36.7167 23.4332 36.7995 23.09C36.8705 22.7468 36.9179 22.4035 36.9415 22.0484C36.9534 21.6933 36.9534 21.3501 36.9297 20.995C36.8824 20.2967 36.7285 19.5984 36.5274 18.9355C36.4564 18.5923 36.3617 18.2609 36.2434 17.9295C36.1251 17.5981 35.9949 17.2785 35.8293 16.9707C35.6636 16.663 35.4861 16.3671 35.2731 16.0949C35.0601 15.8226 34.8353 15.5623 34.575 15.3492C34.3147 15.1362 34.0307 14.9468 33.7112 14.8047C33.3917 14.6627 33.0604 14.5562 32.7173 14.497C32.3741 14.4378 32.031 14.4378 31.6878 14.4852C31.3447 14.5444 31.0134 14.6627 30.7057 14.8284C30.3981 15.006 30.1259 15.2308 29.9011 15.4912C29.6763 15.7516 29.487 16.0594 29.416 16.3671C29.3805 16.521 29.3923 16.663 29.4396 16.7222C29.4633 16.7459 29.487 16.7695 29.5343 16.7814C29.5816 16.7932 29.6171 16.7932 29.6644 16.7814C29.7709 16.7459 29.8893 16.6393 29.9958 16.521C30.1023 16.3908 30.1969 16.2487 30.2916 16.0949C30.4691 15.7871 30.6229 15.4557 30.753 15.1125C30.8832 14.7692 31.0015 14.426 31.0962 14.0709C31.1435 13.8934 31.1909 13.7158 31.2264 13.5383C31.2619 13.3607 31.2855 13.195 31.321 12.9938C31.3802 12.6151 31.4393 12.2482 31.4867 11.8812C31.5813 11.1474 31.6642 10.4017 31.6878 9.66789C31.6997 9.30097 31.6997 8.93405 31.676 8.56713C31.6523 8.21205 31.605 7.84513 31.5103 7.51372C31.463 7.34802 31.4038 7.19415 31.3328 7.05211C31.2973 6.9811 31.25 6.92192 31.2145 6.86274C31.1672 6.81539 31.1199 6.75621 31.0607 6.7207C30.9542 6.64969 30.8477 6.59051 30.7057 6.59051C30.5756 6.57867 30.4454 6.60234 30.3271 6.66152C30.2087 6.7207 30.0786 6.81539 29.9721 6.92192C29.8656 7.04028 29.7591 7.17047 29.6763 7.31251C29.4988 7.59657 29.3568 7.92798 29.2266 8.27123C28.9782 8.94589 28.8125 9.67972 28.6942 10.3781L27.9842 10.2123V10.2005C28.067 9.95195 28.1617 9.71523 28.2682 9.47851C28.3747 9.24179 28.5048 9.0169 28.6587 8.79202C28.8125 8.56713 29.0018 8.35408 29.2503 8.17654C29.3805 8.09369 29.5343 8.01084 29.6999 7.97533C29.7828 7.95165 29.8774 7.95166 29.9603 7.95166C30.0549 7.95166 30.1614 7.97533 30.2561 7.999C30.4454 8.07002 30.5874 8.17654 30.7057 8.30674C30.824 8.4251 30.895 8.55529 30.966 8.68549C31.0962 8.94589 31.179 9.20628 31.2382 9.46667C31.2973 9.72707 31.321 9.9993 31.321 10.2597C31.321 10.5201 31.2973 10.7923 31.2264 11.0645C31.1672 11.3368 31.0607 11.609 30.8832 11.8576C30.7885 11.9878 30.682 12.1061 30.5401 12.2008C30.4691 12.2482 30.4099 12.2837 30.3389 12.331C30.2679 12.3665 30.1969 12.402 30.1141 12.4257C29.7946 12.5204 29.4278 12.4849 29.1438 12.3547C28.848 12.2245 28.6232 12.0233 28.4457 11.7629C28.3629 11.6327 28.28 11.4788 28.2445 11.2894C28.2327 11.1947 28.2209 11.0764 28.2564 10.9462C28.2682 10.9107 28.28 10.8752 28.2919 10.8515C28.3037 10.816 28.3274 10.7805 28.351 10.7568C28.3984 10.6976 28.4575 10.6384 28.5167 10.6029C28.635 10.5201 28.7533 10.4964 28.848 10.4846C28.9427 10.4727 29.061 10.4727 29.1675 10.5082C29.2858 10.5438 29.3923 10.6029 29.4751 10.674C29.558 10.745 29.6171 10.8278 29.6644 10.9107C29.7591 11.0645 29.7946 11.2066 29.8301 11.3486C29.8656 11.4906 29.8893 11.6208 29.9011 11.751C29.9366 12.0114 29.9484 12.26 29.9484 12.5085C29.9603 12.7571 29.9603 13.0057 29.9603 13.2424V13.6093C29.9603 13.7395 29.9484 13.8815 29.9366 14.0117C29.8774 14.5444 29.6999 15.0533 29.4633 15.5149C29.2266 15.9765 28.9545 16.3908 28.6587 16.7932L28.4575 17.0773C28.3984 17.172 28.3274 17.2667 28.2682 17.3613C28.1499 17.5507 28.0315 17.7519 27.9369 17.965C27.5346 18.7935 27.2861 19.693 27.1559 20.6163C27.0258 21.5395 27.0021 22.4982 27.0139 23.4451C27.0139 23.6463 26.8483 23.812 26.6471 23.812C26.4696 23.812 26.3158 23.6818 26.2803 23.5043C26.0792 22.3443 26.1383 21.1607 26.3158 20.0363C26.5051 18.9 26.8128 17.8111 27.1204 16.7222L27.2388 16.3198L27.3334 15.9292L27.4162 15.5267L27.4754 15.1243C27.5464 14.5799 27.5701 14.0354 27.5701 13.4791C27.5582 12.3783 27.4044 11.2658 27.2742 10.1413C27.2033 9.5732 27.1559 9.04057 27.0494 8.50795C26.9548 7.97533 26.8246 7.46638 26.6471 6.96926C26.4696 6.47215 26.2566 6.01054 25.9727 5.59628C25.8307 5.38323 25.6768 5.19385 25.4994 5.01631C25.3219 4.83877 25.1444 4.67306 24.9432 4.53103C24.7421 4.389 24.5291 4.27063 24.3043 4.16411C24.2451 4.14044 24.1978 4.11677 24.1386 4.09309L23.9611 4.03391C23.9019 4.01024 23.8428 3.9984 23.7836 3.98657L23.689 3.9629L23.5706 3.92739L23.334 3.85637C23.263 3.8327 23.192 3.79719 23.1092 3.76168C22.9553 3.7025 22.8252 3.63149 22.695 3.54863C22.4229 3.39476 22.1862 3.22906 21.9496 3.05152C21.4763 2.69644 21.0384 2.31768 20.6243 1.92709C20.2102 1.52466 19.8079 1.12224 19.4174 0.696139L20.009 0.281876C20.3403 0.885516 20.79 1.46548 21.2988 1.95076C21.8076 2.43604 22.3992 2.83847 23.0382 3.07519L23.3103 3.19355C23.405 3.22906 23.4996 3.2764 23.5943 3.32375C23.689 3.38293 23.7836 3.41844 23.8664 3.48945C23.9493 3.56047 24.0321 3.61965 24.1149 3.69067C24.4344 3.97473 24.6829 4.36532 24.8131 4.76775C24.9432 5.17018 24.9787 5.59628 24.9551 5.9987C24.9314 6.40113 24.8486 6.80356 24.7066 7.18231C24.5646 7.56106 24.3753 7.91615 24.1386 8.24756C23.9019 8.57897 23.6298 8.87487 23.2985 9.12343C22.9672 9.37198 22.5885 9.5732 22.1862 9.66789C22.1389 9.67972 22.0797 9.69156 22.0324 9.7034L21.8786 9.72707C21.7721 9.75074 21.6656 9.75074 21.5709 9.76258L21.4171 9.77441H21.2751H21.0029C20.2693 9.78625 19.5357 9.82176 18.8139 9.91644C18.6364 9.94012 18.4589 9.96379 18.2814 9.9993C18.1039 10.0348 17.9383 10.0703 17.7963 10.1177C17.6543 10.165 17.5715 10.2242 17.5241 10.2834C17.5005 10.3189 17.4887 10.3425 17.4887 10.3899C17.4887 10.4136 17.4887 10.4372 17.4887 10.4609C17.4887 10.4727 17.4887 10.4846 17.4887 10.4964V10.5082L17.0508 10.2715C17.5715 10.1177 18.0803 9.98746 18.6009 9.85726C19.1216 9.72707 19.6422 9.62054 20.1865 9.52585C20.435 9.47851 20.7781 9.45484 21.0739 9.49035C21.3816 9.52585 21.6656 9.62054 21.9259 9.7389C22.198 9.85726 22.4465 9.98746 22.6832 10.1532C22.8015 10.236 22.9198 10.3189 23.0263 10.4017C23.1447 10.4846 23.2393 10.5793 23.3576 10.6858C23.4996 10.8278 23.5115 11.0527 23.3695 11.1947C23.2866 11.2776 23.1683 11.3249 23.0618 11.3013H23.0382C22.8015 11.2658 22.5649 11.2302 22.3282 11.2066L21.9732 11.1829L21.7957 11.1711C21.7366 11.1711 21.6774 11.1711 21.6182 11.1711L21.2633 11.1829C21.1449 11.1829 21.0266 11.2066 20.9201 11.2184L20.7426 11.2421C20.6835 11.2539 20.6243 11.2658 20.5651 11.2776C20.4468 11.3013 20.3403 11.3249 20.222 11.3486C19.7724 11.467 19.3345 11.6563 18.9441 11.8931C18.7429 12.0114 18.5654 12.1535 18.3879 12.2955C18.3406 12.331 18.3051 12.3783 18.2578 12.4139C18.2104 12.4494 18.1749 12.4849 18.1394 12.5322C18.1039 12.5796 18.0803 12.6387 18.0685 12.6861C18.0566 12.7098 18.0448 12.7453 18.0448 12.7689C18.033 12.7926 18.0211 12.8163 18.0211 12.8281L17.749 12.0943C17.9738 12.118 18.2104 12.1653 18.4353 12.189L18.7784 12.2126L18.9441 12.2245C19.0032 12.2245 19.0624 12.2245 19.1097 12.2245H19.4529C19.5712 12.2245 19.6777 12.2126 19.796 12.2126C20.0208 12.2126 20.2457 12.1771 20.4705 12.1653C20.6953 12.1298 20.9083 12.118 21.1331 12.0706L21.2988 12.0469L21.4644 12.0114C21.5709 11.9878 21.6774 11.9759 21.7957 11.9523L22.127 11.9049C22.2454 11.8931 22.3519 11.8694 22.4584 11.8576C22.5649 11.8339 22.6832 11.8102 22.7778 11.7629C22.8252 11.7392 22.8843 11.7274 22.9317 11.6919C22.979 11.6682 23.0263 11.6327 23.0618 11.6208L23.121 12.2482C22.411 11.9286 21.6656 11.6919 20.932 11.7392C20.1983 11.7747 19.512 12.118 18.9204 12.6032C18.3169 13.0885 17.7963 13.704 17.2993 14.3313C16.7905 14.9586 16.3172 15.6214 15.8202 16.2724L15.4534 16.7695L15.2523 17.0181L15.1576 17.1483L15.0511 17.2667C14.779 17.5981 14.4595 17.894 14.14 18.1662C13.8205 18.4503 13.4656 18.6988 13.0987 18.9237C12.7319 19.1486 12.3533 19.3498 11.9628 19.5155C10.4009 20.2138 8.72066 20.4742 7.12325 20.7583C6.73278 20.8293 6.3423 20.9122 5.96365 21.0187C5.77433 21.066 5.59684 21.1252 5.43118 21.1962C5.40752 21.2081 5.38385 21.2081 5.37202 21.2199L5.32469 21.2436L5.23003 21.2909L5.13537 21.3501C5.09987 21.3738 5.07621 21.3974 5.04071 21.4211C4.80405 21.6223 4.59107 21.9064 4.43724 22.226C4.27159 22.5455 4.15326 22.9006 4.07043 23.2675C3.89294 24.0014 3.82194 24.7707 3.82194 25.5401C3.82194 26.3094 3.88111 27.0788 3.9876 27.8244C4.10593 28.5701 4.29525 29.3158 4.59107 29.9786L4.65023 30.1088L4.70939 30.2272C4.74489 30.31 4.79222 30.3929 4.82772 30.4639C4.91055 30.6177 5.00521 30.7479 5.1117 30.8781C5.31286 31.1385 5.56134 31.3634 5.84533 31.5528C6.12931 31.7422 6.43696 31.8842 6.78011 31.9907C7.12325 32.0973 7.49007 32.1683 7.85688 32.2038C8.23552 32.2393 8.61417 32.2393 9.00464 32.2275C9.19397 32.2156 9.39512 32.2038 9.58444 32.1801C9.77377 32.1564 9.97492 32.1209 10.1524 32.0973L10.3062 32.8074C9.45429 32.9258 8.57867 32.8074 7.78588 32.4878C7.3954 32.334 7.01676 32.1209 6.66178 31.8842C6.31863 31.6357 5.98732 31.3516 5.70334 31.0438C5.63234 30.9728 5.56134 30.89 5.49035 30.8071C5.41935 30.7243 5.34836 30.6414 5.28919 30.5586L5.09987 30.2982L5.00521 30.168C4.96971 30.1206 4.94605 30.0733 4.91055 30.0259C4.68573 29.6472 4.50824 29.2566 4.37808 28.8542C4.11776 28.0493 3.9876 27.2326 3.94027 26.4041C3.89294 25.5874 3.90477 24.7707 4.03493 23.9304C4.07043 23.7173 4.10593 23.5161 4.16509 23.2912C4.20059 23.1847 4.23609 23.0663 4.28342 22.948C4.30708 22.8888 4.34258 22.8178 4.38991 22.7468C4.43724 22.6757 4.48457 22.5929 4.61473 22.4864C4.65023 22.4627 4.6739 22.439 4.73306 22.4153C4.78039 22.3917 4.83955 22.368 4.89872 22.3562C4.98154 22.3443 4.98154 22.3443 5.00521 22.3443H5.0762C5.1827 22.3443 5.27736 22.368 5.37202 22.3798C5.56134 22.439 5.71517 22.5337 5.83349 22.6284C5.95182 22.7349 6.04648 22.8414 6.11748 22.948C6.20031 23.0545 6.25947 23.161 6.31863 23.2675C6.3778 23.3741 6.42513 23.4806 6.47246 23.599L6.57895 23.8593C6.64995 24.0369 6.72094 24.2026 6.80377 24.3801C6.9576 24.7234 7.13509 25.0666 7.31258 25.3862C7.5019 25.7176 7.70305 26.0372 7.90421 26.3449C7.95154 26.4159 8.0107 26.4988 8.05803 26.5698L8.09353 26.6172C8.1172 26.6527 8.12903 26.6645 8.14086 26.6882L8.22369 26.7947C8.33018 26.9367 8.44851 27.0788 8.56684 27.2208C9.06381 27.7889 9.61994 28.3215 10.1879 28.8423C10.7677 29.3513 11.3593 29.8484 11.9746 30.3218C12.2823 30.5586 12.5899 30.8071 12.8976 31.0438C13.2052 31.2806 13.5129 31.5173 13.8324 31.7422C14.14 31.9671 14.4595 32.1919 14.779 32.3813C15.0985 32.5825 15.4653 32.7719 15.8202 33.0205C15.9977 33.1507 16.1752 33.2927 16.3291 33.4466C16.4947 33.6123 16.6367 33.7898 16.755 33.9792C16.8852 34.1686 16.968 34.3579 17.0508 34.5592C17.1337 34.7604 17.2047 34.9616 17.2638 35.151C17.3822 35.5534 17.4768 35.9558 17.5478 36.3464C17.6188 36.737 17.6898 37.1394 17.7371 37.53C17.9501 39.1161 18.0566 40.7021 18.0803 42.2881C18.0803 43.093 18.0803 43.886 17.962 44.7027C17.9265 44.9157 17.891 45.1169 17.82 45.3418C17.7963 45.401 17.7726 45.4602 17.749 45.5194C17.7135 45.5786 17.678 45.6496 17.6188 45.7324C17.607 45.7561 17.5833 45.7679 17.5596 45.7916C17.536 45.8153 17.5123 45.8271 17.4887 45.8508C17.4295 45.8863 17.3585 45.9218 17.2638 45.9336C17.2165 45.9455 17.181 45.9455 17.1455 45.9336C17.11 45.9336 17.0863 45.9218 17.0508 45.9218C16.9917 45.91 16.9325 45.8745 16.8734 45.8508C16.8142 45.8153 16.7787 45.7798 16.7432 45.7443C16.7077 45.7087 16.684 45.6732 16.6604 45.6259C16.6367 45.5904 16.6249 45.5549 16.6012 45.5194C16.5775 45.4839 16.5657 45.4484 16.5657 45.4128C16.5184 45.2826 16.4947 45.1643 16.4829 45.0578C16.4474 44.8329 16.4474 44.6198 16.4474 44.4186C16.4592 43.5901 16.5657 42.7971 16.684 42.0159L16.7787 41.4359C16.8142 41.2347 16.8497 41.0453 16.8852 40.8441C16.9562 40.4535 17.039 40.0629 17.1337 39.6723C17.323 38.8912 17.536 38.1218 17.82 37.3643C17.962 36.9856 18.1039 36.6068 18.2696 36.2399L18.3998 35.9677L18.4589 35.8493C18.4708 35.8138 18.4944 35.7664 18.5181 35.7191L18.7311 35.1746C19.3109 33.6951 19.9617 32.2275 20.8018 30.8545C21.2159 30.168 21.6774 29.5052 22.198 28.8778C22.7187 28.2624 23.3103 27.6824 23.9848 27.1971C24.6592 26.7118 25.4047 26.3213 26.2211 26.0964C27.0376 25.8715 27.9014 25.8123 28.7297 25.9307C29.5461 26.049 30.3626 26.2739 31.1199 26.629C31.8771 26.9841 32.5634 27.493 33.1432 28.0967C33.723 28.7003 34.1963 29.3868 34.575 30.1206C34.9536 30.8545 35.2495 31.612 35.4979 32.3813C35.6163 32.7719 35.7228 33.1625 35.8174 33.5531L36.0896 34.7012C36.2789 35.4587 36.48 36.2162 36.7167 36.9382C36.9652 37.6602 37.2492 38.3704 37.6041 39.0214C37.971 39.6723 38.4088 40.2641 38.9531 40.7139C39.2252 40.9388 39.521 41.1282 39.8287 41.2821C40.1363 41.4241 40.4795 41.5306 40.8108 41.5898C41.1421 41.649 41.4734 41.649 41.7692 41.5661C42.0651 41.4833 42.3372 41.3531 42.5739 41.14C42.6922 41.0453 42.7987 40.9151 42.9052 40.7849C42.9998 40.6547 43.0945 40.5127 43.1655 40.3588C43.3193 40.0629 43.4495 39.7315 43.5323 39.3883C43.698 38.7018 43.7335 37.968 43.627 37.2815C43.5915 37.1039 43.5678 36.95 43.5086 36.7725C43.4495 36.595 43.414 36.4293 43.343 36.2517L43.2483 35.9913C43.2128 35.9085 43.1773 35.8256 43.1418 35.7428C43.1063 35.6599 43.0708 35.5771 43.0235 35.4942L42.8933 35.2457C42.5502 34.5947 42.1124 33.9792 41.6391 33.3874C41.1658 32.7956 40.6451 32.2275 40.1127 31.6593L39.308 30.7953L38.9057 30.3574C38.7756 30.2153 38.6454 30.0733 38.5153 29.9313C37.4503 28.8187 36.3144 27.7889 35.0483 26.9604C34.4093 26.5461 33.7585 26.1911 33.0604 25.907C32.3623 25.6229 31.6523 25.4335 30.9069 25.3033C30.1614 25.185 29.416 25.1258 28.6705 25.1732C27.925 25.2205 27.1914 25.3507 26.4933 25.5993C25.1089 26.0845 23.8783 27.0196 23.0618 28.2624C22.624 28.9134 22.1744 29.5762 21.7011 30.2153C21.4644 30.5349 21.2159 30.8545 20.9674 31.174C20.7071 31.4936 20.4468 31.8014 20.1155 32.0973C20.0327 32.1683 19.938 32.2393 19.8552 32.3103C19.796 32.3458 19.7487 32.3813 19.6895 32.4168C19.6659 32.4287 19.6304 32.4523 19.6067 32.4642L19.5239 32.4997C19.3109 32.5944 19.0861 32.6772 18.8612 32.7127C18.3998 32.8074 17.9028 32.7601 17.4532 32.5944C17.2283 32.5115 17.0272 32.3932 16.8379 32.2511C16.6485 32.1091 16.4829 31.9552 16.3409 31.7777L16.2817 31.7067L16.2226 31.6238L16.1161 31.4581C16.0806 31.3989 16.0569 31.3516 16.0332 31.2924C16.0096 31.2332 15.9859 31.174 15.9622 31.1267L15.9031 30.961C15.8912 30.9018 15.8794 30.8545 15.8676 30.7953C15.8439 30.6769 15.8321 30.5822 15.8084 30.4639C15.7493 30.0378 15.7493 29.6472 15.6901 29.3039C15.6309 28.9607 15.5126 28.6766 15.3114 28.4754C15.2641 28.4281 15.1931 28.3807 15.1458 28.3334C15.0748 28.286 15.0038 28.2387 14.9446 28.2032C14.8026 28.1203 14.6606 28.073 14.5305 28.0493C14.4003 28.0256 14.2583 28.0375 14.1637 28.073C14.1163 28.0967 14.069 28.1203 14.0454 28.144C14.0217 28.1677 14.0099 28.1914 14.0217 28.1677C14.0335 28.1558 14.0099 28.0848 13.998 28.073C13.9625 28.0375 13.998 28.073 14.0572 28.0848C14.1755 28.1203 14.353 28.1203 14.5305 28.1203C14.8855 28.1085 15.2641 28.0612 15.6428 27.9901C16.0214 27.9191 16.3882 27.8363 16.755 27.7297C17.11 27.6351 17.4532 27.493 17.7845 27.3392C17.9501 27.2563 18.1039 27.1734 18.2578 27.0669C18.3998 26.9722 18.5418 26.8657 18.6483 26.7592C18.6956 26.7118 18.7429 26.6527 18.7547 26.6172C18.7666 26.5935 18.7666 26.5816 18.7666 26.5816C18.7666 26.5816 18.7666 26.5816 18.7666 26.5935C18.7547 26.558 18.7429 26.5461 18.7429 26.5461C18.7429 26.5461 18.7192 26.5343 18.6719 26.5225C18.6246 26.5106 18.5654 26.5225 18.4944 26.5343C18.4826 26.5343 18.4589 26.5461 18.4471 26.5461C18.4589 26.5461 18.4353 26.5461 18.4234 26.5461L18.3879 26.558L18.2341 26.6053L18.0803 26.6527C18.033 26.6645 17.9738 26.6763 17.9265 26.6882C17.82 26.7 17.7135 26.7355 17.607 26.7355C17.181 26.7947 16.7669 26.7829 16.3527 26.7592C15.9386 26.7237 15.5363 26.6645 15.134 26.5816L14.5542 26.4633C14.4595 26.4396 14.3648 26.4159 14.2702 26.4041L14.1282 26.3804L13.998 26.3568C13.9507 26.3449 13.927 26.3568 13.8915 26.3449H13.8679C13.856 26.3449 13.856 26.3449 13.856 26.3449C13.8442 26.3449 13.8442 26.3449 13.8324 26.3449C13.8205 26.3449 13.8205 26.3568 13.8087 26.3568C13.7969 26.3568 13.7969 26.3568 13.7732 26.3686C13.7495 26.3804 13.714 26.3923 13.6904 26.4159C13.5602 26.4988 13.4301 26.6172 13.2881 26.7474C13.0277 27.0077 12.7674 27.3036 12.5426 27.5877L12.306 27.0077C12.5308 27.0433 12.8148 27.0077 13.0869 26.9604C13.3709 26.9012 13.6549 26.8184 13.927 26.7237C13.998 26.7 14.0454 26.6763 14.1518 26.6408C14.1992 26.629 14.2347 26.6172 14.282 26.6053L14.4003 26.5698L14.85 26.4514L15.7493 26.2147L19.3227 25.2915L19.4765 26.0017C19.299 26.0372 19.1452 26.0253 19.0032 26.0253C18.8612 26.0135 18.7192 26.0017 18.5773 25.9898C18.4353 25.978 18.3051 25.9543 18.1749 25.9307C18.0448 25.907 17.9146 25.8833 17.7726 25.8478L17.82 25.8596C17.1573 25.7886 16.4829 25.7531 15.8084 25.7294L15.5599 25.7176C15.4416 25.7176 15.3351 25.7058 15.2168 25.6703C15.0985 25.6466 14.9683 25.5993 14.8263 25.5046C14.6961 25.4099 14.566 25.2442 14.5187 25.0666C14.4713 24.8891 14.4832 24.7352 14.5068 24.605C14.5305 24.4748 14.566 24.3683 14.6133 24.2618C14.6606 24.1552 14.708 24.0724 14.7553 23.9777C14.779 23.9304 14.8145 23.8949 14.8381 23.8475C14.8736 23.8002 14.8973 23.7647 14.9328 23.7173L14.9091 23.7528C14.9446 23.6818 15.0038 23.5753 15.0393 23.4569C15.0748 23.3386 15.1103 23.2084 15.1458 23.0782C15.2168 22.8178 15.2641 22.5455 15.3114 22.2615C15.4179 21.7052 15.5008 21.137 15.6191 20.5452C15.6546 20.3914 15.6901 20.2493 15.7374 20.0836L15.7848 19.9534C15.8084 19.9061 15.8202 19.8706 15.8439 19.8114L15.8794 19.7404C15.8912 19.7167 15.9149 19.6812 15.9386 19.6457L15.9504 19.622L15.9741 19.5984C15.9859 19.5747 16.0096 19.5628 16.0214 19.5392L16.0451 19.5155L16.0687 19.5037L16.1042 19.4682C16.3054 19.3025 16.5775 19.2196 16.8142 19.2314C17.0627 19.2314 17.2757 19.3143 17.4532 19.409C17.82 19.6102 18.0685 19.9298 18.2223 20.273C18.3051 20.4624 18.3643 20.6873 18.3524 20.9122C18.3524 21.1489 18.2696 21.3738 18.1631 21.5631C17.9383 21.9419 17.5951 22.1786 17.2402 22.3088C17.1928 22.3325 17.1455 22.3443 17.0982 22.3562C17.0508 22.368 17.0035 22.3798 16.9562 22.3917L16.8142 22.4153L16.7314 22.4272C16.6249 22.4509 16.5065 22.4745 16.4 22.51C16.1871 22.5929 15.9859 22.7112 15.7611 22.8651L15.5954 22.9835L15.5008 23.0427L15.4534 23.0782L15.3943 23.1255C15.2168 23.232 15.063 23.3031 14.8973 23.3622C14.5778 23.4688 14.2465 23.5279 13.9152 23.5516C13.5839 23.5753 13.2526 23.5634 12.9094 23.4806C12.8266 23.4569 12.7438 23.4332 12.6491 23.4096C12.5426 23.3741 12.4479 23.3386 12.3533 23.2675C12.1521 23.1492 11.9746 22.9716 11.8563 22.7704C11.738 22.5692 11.6907 22.3562 11.667 22.155C11.6552 22.0603 11.6552 21.9537 11.6552 21.859C11.6552 21.8117 11.6552 21.7644 11.667 21.717C11.6788 21.6697 11.6788 21.6223 11.6907 21.5513L11.6788 21.6105C11.7143 21.2554 11.738 20.8767 11.7617 20.4979C11.7735 20.1191 11.7853 19.7404 11.7853 19.3616C11.7971 18.6041 11.7853 17.8466 11.738 17.1009C11.7262 16.9116 11.7143 16.734 11.7025 16.5447C11.6907 16.45 11.6907 16.3553 11.6788 16.2724C11.667 16.1896 11.6552 16.1067 11.6433 16.0239C11.5723 15.6925 11.4658 15.361 11.3238 15.0415C11.0399 14.4023 10.6375 13.7987 10.1524 13.3134C9.90393 13.0648 9.63177 12.8518 9.34779 12.6743C9.05197 12.4967 8.74433 12.3547 8.42484 12.26C8.25919 12.2126 8.09353 12.1771 7.92787 12.1416C7.84504 12.1298 7.76222 12.118 7.67939 12.1061L7.40724 12.0824C7.05226 12.0706 6.69728 12.0824 6.35413 12.1298C6.01098 12.1771 5.67967 12.2718 5.36019 12.402C5.05254 12.5322 4.75672 12.7098 4.55557 12.9228C4.50824 12.9702 4.46091 13.0293 4.43724 13.0648C4.42541 13.0767 4.42541 13.1004 4.42541 13.0767C4.42541 13.0648 4.42541 13.0648 4.42541 13.0412C4.42541 13.0293 4.42541 13.0175 4.42541 13.0057C4.42541 12.9938 4.42541 12.9938 4.42541 12.9583C4.41358 12.911 4.40174 12.8755 4.35441 12.8044C4.30708 12.7453 4.24792 12.6979 4.18876 12.6743L4.16509 12.6624C4.15326 12.6624 4.15326 12.6624 4.15326 12.6624C4.15326 12.6624 4.15326 12.6624 4.14143 12.6624H4.12959H4.15326C4.16509 12.6624 4.17692 12.6624 4.20059 12.6624C4.22425 12.6624 4.23609 12.6624 4.24792 12.6624C4.33075 12.6506 4.41358 12.6387 4.49641 12.6269C4.83955 12.5559 5.2182 12.4612 5.57318 12.3547L5.59684 12.3428H5.60867L5.98732 12.2718C6.11748 12.26 6.24764 12.2482 6.36596 12.2363C6.62628 12.2245 6.8866 12.2245 7.14692 12.26C7.40724 12.2955 7.67939 12.3547 7.92787 12.4612C8.05803 12.5204 8.17636 12.5796 8.29469 12.6506C8.35385 12.6861 8.41301 12.7334 8.47218 12.7808C8.49584 12.8044 8.53134 12.8281 8.555 12.8518L8.60233 12.8991C8.61417 12.9228 8.626 12.9228 8.64967 12.9583C8.77982 13.1122 8.76799 13.3371 8.61417 13.4673C8.555 13.5146 8.49584 13.5383 8.42484 13.5501H8.40118C8.21186 13.5738 8.03437 13.5975 7.84504 13.633L7.57289 13.6922L7.44273 13.7277L7.31258 13.7632L7.05226 13.846C6.96943 13.8815 6.8866 13.917 6.79194 13.9525L6.66178 13.9999L6.54345 14.0591C6.46062 14.1064 6.3778 14.1419 6.29497 14.1774C5.97549 14.355 5.67967 14.568 5.41935 14.8166C5.28919 14.9349 5.17087 15.077 5.05254 15.2072C4.99338 15.2782 4.94605 15.3492 4.89872 15.4202C4.87505 15.4557 4.85138 15.4912 4.82772 15.5267C4.81589 15.5504 4.80405 15.5623 4.79222 15.5859L4.76856 15.6333L4.21242 15.1953C4.38991 15.0651 4.57923 14.9349 4.75672 14.8047L5.05254 14.6272C5.1472 14.568 5.24186 14.5088 5.34836 14.4615L5.656 14.3195C5.7625 14.2721 5.86899 14.2366 5.97549 14.1893C6.18847 14.1064 6.41329 14.0591 6.63811 13.9999C7.08775 13.9052 7.54923 13.8815 8.0107 13.9289C8.06987 13.9407 8.12903 13.9407 8.18819 13.9525L8.35385 13.9881C8.47218 13.9999 8.57867 14.0354 8.697 14.0709C8.80349 14.1064 8.92182 14.1419 9.02831 14.1774C9.08747 14.2011 9.1348 14.2248 9.19397 14.2484C9.21763 14.2603 9.25313 14.2721 9.27679 14.284C9.30046 14.2958 9.33596 14.3076 9.37146 14.3313C9.52528 14.4142 9.57261 14.6154 9.48978 14.7574C9.47795 14.7811 9.46612 14.8047 9.44245 14.8166C9.40695 14.9468 9.34779 15.0651 9.26496 15.148C9.18213 15.2427 9.08747 15.3137 8.99281 15.3965C8.80349 15.5504 8.5905 15.6806 8.37751 15.799C7.93971 16.0239 7.47823 16.1896 7.00493 16.2724C6.53162 16.3671 6.05831 16.3908 5.58501 16.3789C5.1117 16.3553 4.65023 16.2961 4.18876 16.1777C3.96394 16.1186 3.72728 16.0475 3.50246 15.9647C3.27764 15.87 3.05282 15.7753 2.828 15.6333C2.72151 15.5623 2.60318 15.4794 2.49669 15.361C2.44936 15.3019 2.40203 15.2427 2.3547 15.1953C2.30737 15.1362 2.27187 15.077 2.23637 15.0178C2.15354 14.8994 2.11804 14.7811 2.05888 14.6509C2.02338 14.5325 1.97605 14.4023 1.94055 14.284C1.81039 13.7987 1.76306 13.3371 1.75123 12.8755C1.72757 12.4139 1.7394 11.9522 1.75123 11.5262C1.75123 11.4788 1.75123 11.4196 1.75123 11.3841C1.75123 11.3486 1.75123 11.3013 1.7394 11.2658C1.7394 11.2302 1.72757 11.1829 1.71573 11.1474C1.7039 11.1119 1.69207 11.0645 1.68024 11.0172C1.62107 10.8515 1.53824 10.674 1.44358 10.4964C1.24243 10.1413 0.993942 9.78625 0.757289 9.34831C0.307649 8.49612 0.0828285 7.54923 0 6.62601C0 5.65546 0.0354979 4.73224 0.153824 3.82086C0.283984 2.92132 0.496971 2.03362 0.792787 1.18142C0.863783 0.992041 1.06494 0.885516 1.26609 0.956532C1.43175 1.02755 1.53824 1.20509 1.50275 1.3708Z" fill="#EDEDED"/>
</svg>
