<svg width="10" height="14" viewBox="0 0 10 14" fill="none" xmlns="http://www.w3.org/2000/svg">
<path d="M0.863904 9.25402L9.13606 9.25402L4.99998 13.2677L0.863904 9.25402ZM0.214516 9.7366L4.35059 13.7496C4.43154 13.8282 4.53137 13.8913 4.64337 13.9344C4.75538 13.9776 4.87697 14 4.99998 14C5.123 14 5.24459 13.9776 5.35659 13.9344C5.4686 13.8913 5.56842 13.8282 5.64937 13.7496L9.78545 9.73733C10.2736 9.26208 9.87686 8.52173 9.13606 8.52173L0.863904 8.52173C0.698113 8.52161 0.535793 8.56207 0.396386 8.63827C0.256978 8.71446 0.146392 8.82317 0.077869 8.95136C0.0093461 9.07955 -0.0142084 9.2218 0.0100267 9.36107C0.0342617 9.50033 0.105259 9.63072 0.214516 9.7366Z" fill="#EDEDED"/>
<path d="M9.13658 4.74598H0.864429L5.00051 0.732287L9.13658 4.74598ZM9.78597 4.2634L5.64989 0.250439C5.56895 0.171784 5.46912 0.108744 5.35712 0.0655506C5.24511 0.0223573 5.12352 1.01868e-05 5.00051 1.01868e-05C4.87749 1.01868e-05 4.7559 0.0223573 4.6439 0.0655506C4.53189 0.108744 4.43206 0.171784 4.35112 0.250439L0.21504 4.26267C-0.273079 4.73792 0.123626 5.47827 0.864429 5.47827H9.13658C9.30238 5.47839 9.46469 5.43793 9.6041 5.36173C9.74351 5.28554 9.8541 5.17683 9.92262 5.04864C9.99114 4.92045 10.0147 4.7782 9.99046 4.63893C9.96623 4.49967 9.89523 4.36928 9.78597 4.2634Z" fill="#EDEDED"/>
</svg>
